<svg 
 xmlns="http://www.w3.org/2000/svg"
 xmlns:xlink="http://www.w3.org/1999/xlink"
 width="90px" height="90px">
<path fill-rule="evenodd"  fill="rgb(221, 94, 94)"
 d="M44.999,-0.000 C69.851,-0.000 89.998,20.147 89.998,45.000 C89.998,69.852 69.851,89.999 44.999,89.999 C20.146,89.999 -0.001,69.852 -0.001,45.000 C-0.001,20.147 20.146,-0.000 44.999,-0.000 Z"/>
<path fill-rule="evenodd"  fill="rgb(255, 255, 255)"
 d="M71.576,35.798 L46.827,60.546 C45.265,62.109 42.732,62.109 41.170,60.546 L22.078,41.454 C20.516,39.892 20.516,37.360 22.078,35.798 C23.641,34.235 26.173,34.235 27.735,35.798 L43.998,52.060 L65.919,30.141 C67.481,28.578 70.015,28.578 71.576,30.141 C73.138,31.702 73.138,34.235 71.576,35.798 Z"/>
</svg>